<?xml version="1.0" encoding="iso-8859-1"?>
<!-- Generator: Adobe Illustrator 19.0.0, SVG Export Plug-In . SVG Version: 6.00 Build 0)  -->
<svg version="1.1" id="Capa_1" xmlns="http://www.w3.org/2000/svg" xmlns:xlink="http://www.w3.org/1999/xlink" x="0px" y="0px"
	 viewBox="0 0 512 512" style="enable-background:new 0 0 512 512;" xml:space="preserve">
<g>
	<g>
		<g>
			<path d="M254.128,166.488c2.721-3.123,2.396-7.86-0.727-10.582c-3.123-2.723-7.859-2.396-10.582,0.726
				c-3.478,3.991-8.499,6.28-13.776,6.28c-5.277,0-10.298-2.289-13.775-6.279c-2.721-3.123-7.46-3.448-10.581-0.727
				c-3.123,2.721-3.449,7.458-0.728,10.581c6.326,7.261,15.47,11.425,25.083,11.425C238.657,177.911,247.8,173.748,254.128,166.488z
				"/>
			<path d="M486.402,385.888c-1.365-5.916-4.953-10.946-10.102-14.163c-5.291-3.307-10.854-5.974-16.582-8.06
				c-0.087-0.035-0.175-0.064-0.263-0.096c-31.26-11.274-67.505-4.62-93.027,17.665c13.565-19.793,16.573-45.483,6.981-68.86
				c-2.684-6.545-7.313-11.716-12.945-15.127c7.21-3.087,13.994-6.502,20.31-10.244c39.066-23.145,59.715-58.471,59.715-102.155
				c0-19.399-3.955-38.276-11.539-55.997c21.05-31.426,26.848-70.043,15.847-106.668c-3.462-11.527-13.423-19.885-25.375-21.293
				c-36.5-4.302-72.433,7.124-99.362,31.408c-24.45-8.745-51.005-13.347-78.398-13.347c-27.393,0-53.948,4.602-78.398,13.347
				C136.338,8.015,100.412-3.411,63.903,0.89C51.95,2.298,41.989,10.657,38.527,22.183c-11.003,36.625-5.205,75.242,15.847,106.668
				c-7.585,17.722-11.54,36.598-11.54,55.998c0,35.869,13.432,65.508,39.921,88.097c12.737,10.861,28.212,19.812,46.236,26.831
				c-0.187,0.478-0.369,0.957-0.549,1.437c-26.81,1.258-43.313-8.115-48.471-13.55c-12.094-12.745-32.303-13.274-45.05-1.179
				c-12.744,12.096-13.272,32.304-1.178,45.049c26.121,27.524,63.011,33.302,89.359,33.302c0.713,0,1.428-0.005,2.146-0.014
				c4.168,15.81,11.939,30.308,22.457,42.689c-8.695,15.023-21.04,45.546-7.716,83.238c4.493,12.711,16.566,21.25,30.043,21.25
				c3.616,0,7.189-0.615,10.621-1.829c16.566-5.857,25.278-24.098,19.422-40.665c-3.885-10.99-1.967-20.065,0.728-26.201
				c12.758,4.331,26.516,6.698,40.857,6.698c3.95,0,7.879-0.196,11.777-0.56c3.973,18.214,14.225,35.614,31.192,52.969
				c6.046,6.183,14.139,9.588,22.785,9.588c8.376,0,16.287-3.225,22.275-9.081c12.563-12.284,12.791-32.499,0.508-45.062
				c-12.53-12.816-15.244-21.138-14.991-26.883c8.319,5.43,17.158,8.692,26.379,9.714c1.959,0.217,3.947,0.328,5.909,0.328
				c16.384,0,32.318-7.695,44.869-21.666c13.274-14.777,32.89-18.212,48.56-13.933c0.389,0.148,0.797,0.259,1.218,0.342
				c3.632,1.1,7.033,2.619,10.065,4.514c10.626,6.642,24.675,3.399,31.318-7.228C486.747,397.897,487.768,391.804,486.402,385.888z
				 M121.781,338.074c0,3.971,0.226,7.893,0.661,11.758c-23.358-0.093-55.572-5.183-77.817-28.624
				c-6.402-6.746-6.123-17.442,0.622-23.843c6.748-6.401,17.446-6.121,23.844,0.624c5.061,5.332,13.553,10.263,23.298,13.527
				c9.726,3.258,20.337,4.864,31.654,4.815C122.544,323.436,121.781,330.698,121.781,338.074z M421.069,113.093
				c-9.712-16.886-22.923-32.438-39.335-46.025c-1.149-0.951-2.309-1.888-3.481-2.813c18.575-14.96,38.928-22.249,55.031-25.786
				C436.506,56.214,437.352,84.34,421.069,113.093z M417.667,15.787c5.095,0.601,9.462,3.716,11.739,8.179
				c-18.656,4.18-42.354,12.941-63.679,31.2c-9.421-6.296-19.432-11.822-29.921-16.535C358.77,20.565,387.995,12.292,417.667,15.787
				z M65.659,15.787c29.663-3.497,58.895,4.778,81.862,22.844c-10.491,4.713-20.5,10.239-29.921,16.535
				c-21.324-18.26-45.023-27.021-63.68-31.201C56.197,19.502,60.563,16.387,65.659,15.787z M50.041,38.469
				c16.103,3.537,36.456,10.828,55.031,25.786c-1.172,0.925-2.333,1.862-3.481,2.813c-16.412,13.587-29.623,29.138-39.335,46.025
				C45.973,84.34,46.818,56.214,50.041,38.469z M185.936,474.506c3.1,8.768-1.512,18.424-10.281,21.523
				c-1.821,0.644-3.712,0.971-5.62,0.971c-7.133,0-13.523-4.521-15.901-11.251c-10.322-29.194-2.53-53.311,4.516-67.002
				c8.356,7.498,17.869,13.88,28.262,18.883C183.131,446.375,180.508,459.152,185.936,474.506z M319.476,468.343
				c6.502,6.65,6.381,17.35-0.269,23.85c-3.17,3.099-7.357,4.806-11.79,4.806c-4.577,0-8.861-1.803-12.061-5.075
				c-14.629-14.963-23.525-29.673-27.051-44.763c11.272-2.42,22.098-6.347,32.136-11.619
				C301.578,445.891,307.77,456.371,319.476,468.343z M307.813,397.446c-11.135,0.001-22.261-3.337-32.295-9.655
				c-0.038-0.025-0.076-0.049-0.114-0.073c-0.47-0.297-0.941-0.593-1.406-0.904c-7.734-5.163-9.827-15.657-4.664-23.391
				c2.501-3.747,6.311-6.296,10.728-7.177c4.422-0.882,8.915,0.011,12.663,2.513c9.931,6.627,20.747,6.586,28.937-0.115
				c6.237-5.103,11.725-15.438,6.664-27.774c-0.46-1.121-0.799-2.282-1.008-3.453c-0.728-4.078-4.618-6.794-8.7-6.067
				c-4.078,0.727-6.794,4.622-6.067,8.7c0.395,2.219,1.034,4.411,1.898,6.515c2.384,5.813-0.804,9.26-2.285,10.472
				c-3.019,2.47-6.654,2.223-11.112-0.751c-1.685-1.125-3.452-2.072-5.277-2.848c-1.84-3.637-4.252-6.913-7.212-9.762
				c-12.842-12.36-32.632-13.614-46.901-3.888c-14.268-9.727-34.06-8.471-46.901,3.889c-7.149,6.881-11.14,16.225-11.236,26.309
				c-0.097,10.197,3.962,20.161,11.136,27.334l28.317,28.317c4.99,4.991,11.626,7.74,18.685,7.74c7.059,0,13.694-2.749,18.686-7.74
				l12.221-12.222c11.09,5.925,23.132,9.033,35.246,9.033c0.355,0,0.708-0.017,1.063-0.023
				c-18.695,14.391-42.502,22.579-67.214,22.579c-57.833,0-104.882-43.482-104.882-96.929c0-9.326,1.409-18.441,4.195-27.229
				c0.051-0.143,0.096-0.288,0.138-0.435c0.616-1.908,1.302-3.799,2.048-5.676c11.76,3.671,24.44,6.627,38.047,8.828
				c4.086,0.659,7.94-2.118,8.601-6.207c0.662-4.089-2.117-7.94-6.206-8.601c-15.154-2.451-29.04-5.863-41.647-10.19
				c-0.306-0.13-0.615-0.241-0.928-0.327c-19.316-6.734-35.572-15.65-48.539-26.706c-22.994-19.607-34.653-45.408-34.653-76.683
				c0-83.205,82.465-150.897,183.828-150.897s183.828,67.692,183.828,150.897c0,38.637-17.617,68.664-52.362,89.251
				c-32.071,19.002-77.531,29.045-131.467,29.045c-8.224,0-16.383-0.24-24.248-0.713c-4.14-0.256-7.688,2.901-7.936,7.036
				c-0.249,4.135,2.901,7.688,7.036,7.937c8.165,0.491,16.627,0.74,25.149,0.74c31.484,0,60.329-3.334,85.652-9.792
				c2.27,2.18,5.766,2.775,8.701,1.221c0.49-0.26,0.998-0.498,1.511-0.708c8.606-3.528,18.477,0.599,22.006,9.203
				c9.77,23.809,3.136,50.607-16.509,66.681c-3.446,2.82-7.131,5.177-10.992,7.076c-0.12,0.056-0.239,0.112-0.356,0.174
				c-0.744,0.359-1.494,0.701-2.251,1.026c-0.174,0.068-0.344,0.143-0.513,0.224C322.271,396.014,315.158,397.446,307.813,397.446z
				 M260.155,394.614l-10.415,10.415c-2.157,2.158-5.026,3.346-8.078,3.346c-3.051,0-5.92-1.188-8.077-3.346l-28.317-28.317
				c-4.345-4.345-6.803-10.39-6.743-16.585c0.058-6.024,2.415-11.581,6.639-15.646c8.68-8.355,22.674-8.217,31.195,0.306
				c1.407,1.407,3.314,2.197,5.304,2.197c1.989,0,3.896-0.79,5.303-2.197c7.575-7.575,19.462-8.508,28.108-2.762
				c-7.47,2.002-13.885,6.582-18.215,13.072C248.476,367.655,250.225,384.056,260.155,394.614z M437.837,389.555
				c-19.198-2.881-41.204,2.599-56.628,19.769c-9.81,10.92-21.466,16.691-33.711,16.691c-1.411,0-2.843-0.08-4.256-0.236
				c-6.486-0.719-12.796-2.987-18.844-6.746c4.006-3.556,7.765-7.382,11.236-11.465c3.109,1.542,6.227,2.505,9.314,2.848
				c6.018,0.668,15.196-0.775,24.763-11.422c18.904-21.043,47.77-29.738,74.235-24.279
				C441.219,379.37,439.202,384.563,437.837,389.555z M470.809,395.095c-2.258,3.615-7.036,4.717-10.649,2.458
				c-2.453-1.533-5.094-2.872-7.867-4.023c1.394-5.127,3.597-10.354,6.481-14.119c3.282,1.431,6.487,3.101,9.578,5.033
				c1.751,1.094,2.971,2.804,3.435,4.815C472.25,391.273,471.903,393.344,470.809,395.095z"/>
			<path d="M365.204,220.335c-7.897-5.829-28.229-16.042-39.003-18.903c-4.008-1.062-8.111,1.322-9.174,5.325
				c-1.063,4.003,1.321,8.11,5.324,9.173c8.767,2.327,27.423,11.66,33.944,16.474c1.341,0.989,2.901,1.466,4.448,1.466
				c2.3,0,4.569-1.054,6.04-3.046C369.244,227.49,368.536,222.794,365.204,220.335z"/>
			<path d="M287.532,175.548c4.063,4.062,9.463,6.299,15.209,6.299c5.745,0,11.146-2.237,15.208-6.299l20.961-20.96
				c5.678-5.678,8.89-13.562,8.813-21.628c-0.076-7.993-3.242-15.402-8.914-20.86c-9.851-9.479-24.859-10.72-36.067-3.796
				c-11.208-6.92-26.219-5.683-36.068,3.796c-5.672,5.459-8.838,12.868-8.914,20.86c-0.077,8.067,3.135,15.951,8.813,21.628
				L287.532,175.548z M277.074,122.905c2.795-2.69,6.435-4.031,10.074-4.031c3.736,0,7.472,1.413,10.29,4.232
				c2.928,2.929,7.677,2.928,10.606,0c5.563-5.564,14.699-5.651,20.362-0.2c2.746,2.643,4.279,6.265,4.317,10.197
				c0.039,4.066-1.572,8.031-4.421,10.879l-20.961,20.961c-1.228,1.229-2.862,1.906-4.601,1.906s-3.373-0.677-4.602-1.906
				l-20.961-20.961c-2.849-2.848-4.46-6.814-4.421-10.879C272.795,129.169,274.328,125.548,277.074,122.905z"/>
			<path d="M125.795,190.3c4.09,0.543,7.874-2.346,8.418-6.453c0.542-4.106-2.347-7.876-6.453-8.418
				c-11.054-1.46-33.741,0.237-43.264,2.617c-4.019,1.004-6.461,5.077-5.457,9.095c0.853,3.408,3.91,5.683,7.271,5.683
				c0.603,0,1.215-0.073,1.825-0.226C95.997,190.632,116.805,189.112,125.795,190.3z"/>
			<path d="M155.347,108.301c-11.206-6.918-26.216-5.685-36.068,3.796c-5.672,5.459-8.837,12.868-8.914,20.859
				c-0.077,8.068,3.136,15.952,8.813,21.629l20.961,20.961c4.192,4.192,9.7,6.288,15.208,6.288s11.016-2.096,15.209-6.289
				l20.961-20.96c5.678-5.678,8.891-13.562,8.813-21.629c-0.076-7.993-3.242-15.401-8.914-20.858
				C181.564,102.615,166.555,101.378,155.347,108.301z M180.909,143.98l-20.959,20.96c-2.539,2.538-6.667,2.538-9.204,0.001
				l-20.96-20.961c-2.849-2.849-4.46-6.814-4.421-10.88c0.037-3.932,1.57-7.553,4.315-10.196c2.796-2.69,6.436-4.031,10.075-4.031
				c3.736,0,7.472,1.413,10.289,4.231c2.93,2.929,7.678,2.929,10.607,0c5.565-5.564,14.699-5.651,20.361-0.2
				c2.747,2.643,4.28,6.264,4.317,10.196C185.368,137.166,183.758,141.131,180.909,143.98z"/>
			<path d="M131.887,201.432c-10.773,2.86-31.106,13.074-39.004,18.903c-3.332,2.46-4.04,7.155-1.58,10.488
				c1.471,1.992,3.74,3.046,6.04,3.046c1.547,0,3.108-0.477,4.448-1.466c6.521-4.814,25.178-14.146,33.945-16.474
				c4.003-1.063,6.387-5.17,5.324-9.173C139.998,202.754,135.897,200.371,131.887,201.432z"/>
			<path d="M330.327,175.43c-4.106,0.542-6.995,4.312-6.453,8.418c0.543,4.107,4.315,6.99,8.418,6.453
				c8.995-1.189,29.799,0.332,37.662,2.297c0.61,0.153,1.222,0.226,1.824,0.226c3.36-0.001,6.418-2.275,7.271-5.683
				c1.004-4.018-1.44-8.09-5.458-9.095C364.07,175.666,341.382,173.969,330.327,175.43z"/>
		</g>
	</g>
</g>
<g>
</g>
<g>
</g>
<g>
</g>
<g>
</g>
<g>
</g>
<g>
</g>
<g>
</g>
<g>
</g>
<g>
</g>
<g>
</g>
<g>
</g>
<g>
</g>
<g>
</g>
<g>
</g>
<g>
</g>
</svg>
